<?xml version="1.0" encoding="UTF-8" standalone="no"?>
<!DOCTYPE svg PUBLIC "-//W3C//DTD SVG 1.1//EN"
 "http://www.w3.org/Graphics/SVG/1.1/DTD/svg11.dtd">
<!-- Generated by graphviz version 2.42.4 (0)
 -->
<!-- Title: ShopDomain Pages: 1 -->
<svg width="654pt" height="254pt"
 viewBox="0.00 0.00 653.68 254.00" xmlns="http://www.w3.org/2000/svg" xmlns:xlink="http://www.w3.org/1999/xlink">
<g id="graph0" class="graph" transform="scale(1 1) rotate(0) translate(4 250)">
<title>ShopDomain</title>
<polygon fill="white" stroke="transparent" points="-4,4 -4,-250 649.68,-250 649.68,4 -4,4"/>
<g id="clust1" class="cluster">
<title>cluster_ShopDomain</title>
<polygon fill="none" stroke="black" points="9.68,-8 9.68,-238 637.68,-238 637.68,-8 9.68,-8"/>
<text text-anchor="middle" x="323.68" y="-222.8" font-family="Times,serif" font-size="14.00">ShopDomain</text>
</g>
<g id="clust2" class="cluster">
<title>cluster_CustomerDomain</title>
<polygon fill="none" stroke="black" points="177.68,-16 177.68,-163 629.68,-163 629.68,-16 177.68,-16"/>
<text text-anchor="middle" x="403.68" y="-147.8" font-family="Times,serif" font-size="14.00">CustomerDomain</text>
</g>
<!-- Api -->
<g id="node1" class="node">
<title>Api</title>
<ellipse fill="none" stroke="black" cx="95.68" cy="-189" rx="71.49" ry="18"/>
<text text-anchor="middle" x="95.68" y="-185.3" font-family="Times,serif" font-size="14.00">ShopRestAPI</text>
</g>
<!-- ORDER -->
<g id="node2" class="node">
<title>ORDER</title>
<polygon fill="none" stroke="black" points="131.18,-60 18.18,-60 18.18,-24 131.18,-24 131.18,-60"/>
<text text-anchor="middle" x="74.68" y="-38.3" font-family="Times,serif" font-size="14.00">OrderDomain</text>
</g>
<!-- Api&#45;&gt;ORDER -->
<g id="edge7" class="edge">
<title>Api&#45;&gt;ORDER</title>
<path fill="none" stroke="purple" d="M33.71,-179.94C24.37,-176.24 16.14,-170.85 10.68,-163 -6.3,-138.54 0.27,-123.9 10.68,-96 14.67,-85.32 21.89,-75.36 30.33,-67.03"/>
<polygon fill="purple" stroke="purple" points="32.89,-69.43 38,-60.15 28.22,-64.22 32.89,-69.43"/>
</g>
<!-- Api&#45;&gt;ORDER -->
<g id="edge9" class="edge">
<title>Api&#45;&gt;ORDER</title>
<path fill="none" stroke="gray" d="M57.36,-173.57C53.28,-170.66 49.59,-167.18 46.68,-163 29.7,-138.54 36.27,-123.9 46.68,-96 50.48,-85.83 57.2,-76.33 63.6,-68.25"/>
<polygon fill="gray" stroke="gray" points="66.4,-70.35 70.01,-60.38 60.98,-65.93 66.4,-70.35"/>
</g>
<!-- DELIVERY -->
<g id="node3" class="node">
<title>DELIVERY</title>
<polygon fill="none" stroke="black" points="169.18,-132 38.18,-132 38.18,-96 169.18,-96 169.18,-132"/>
<text text-anchor="middle" x="103.68" y="-110.3" font-family="Times,serif" font-size="14.00">DeliveryDomain</text>
</g>
<!-- Api&#45;&gt;DELIVERY -->
<g id="edge5" class="edge">
<title>Api&#45;&gt;DELIVERY</title>
<path fill="none" stroke="green" d="M91.74,-170.7C91.78,-162.15 92.7,-151.65 94.17,-142.07"/>
<polygon fill="green" stroke="green" points="97.63,-142.64 95.98,-132.18 90.74,-141.39 97.63,-142.64"/>
</g>
<!-- gw -->
<g id="node4" class="node">
<title>gw</title>
<ellipse fill="none" stroke="black" cx="283.68" cy="-114" rx="96.68" ry="18"/>
<text text-anchor="middle" x="283.68" y="-110.3" font-family="Times,serif" font-size="14.00">CustomerGateway</text>
</g>
<!-- Api&#45;&gt;gw -->
<g id="edge3" class="edge">
<title>Api&#45;&gt;gw</title>
<path fill="none" stroke="blue" d="M148.53,-176.79C162.8,-172.89 178.02,-168.17 191.68,-163 211.91,-155.35 233.65,-145.27 251.02,-136.32"/>
<polygon fill="blue" stroke="blue" points="252.97,-139.25 260.19,-131.49 249.71,-133.06 252.97,-139.25"/>
</g>
<!-- ORDER&#45;&gt;Api -->
<g id="edge8" class="edge">
<title>ORDER&#45;&gt;Api</title>
<path fill="none" stroke="brown" d="M53.86,-60.38C44.23,-69.8 33.8,-82.3 28.68,-96 18.27,-123.9 11.7,-138.54 28.68,-163 30.63,-165.8 32.93,-168.3 35.49,-170.51"/>
<polygon fill="brown" stroke="brown" points="33.63,-173.48 43.84,-176.34 37.64,-167.74 33.63,-173.48"/>
</g>
<!-- DELIVERY&#45;&gt;Api -->
<g id="edge6" class="edge">
<title>DELIVERY&#45;&gt;Api</title>
<path fill="none" stroke="orange" d="M107.63,-132.09C107.6,-140.72 106.67,-151.38 105.17,-161.07"/>
<polygon fill="orange" stroke="orange" points="101.7,-160.6 103.34,-171.07 108.59,-161.86 101.7,-160.6"/>
</g>
<!-- DELIVERY&#45;&gt;ORDER -->
<g id="edge11" class="edge">
<title>DELIVERY&#45;&gt;ORDER</title>
<path fill="none" stroke="gray" d="M96.52,-95.7C93.25,-87.81 89.31,-78.3 85.68,-69.55"/>
<polygon fill="gray" stroke="gray" points="88.83,-68 81.77,-60.1 82.36,-70.68 88.83,-68"/>
</g>
<!-- gw&#45;&gt;Api -->
<g id="edge4" class="edge">
<title>gw&#45;&gt;Api</title>
<path fill="none" stroke="red" d="M246.07,-130.82C224.94,-140.88 198.2,-153.72 173.68,-163 165.66,-166.04 157.09,-168.92 148.67,-171.57"/>
<polygon fill="red" stroke="red" points="147.43,-168.29 138.9,-174.57 149.49,-174.98 147.43,-168.29"/>
</g>
<!-- gw&#45;&gt;ORDER -->
<g id="edge10" class="edge">
<title>gw&#45;&gt;ORDER</title>
<path fill="none" stroke="gray" d="M238.85,-97.98C208.61,-87.86 168.35,-74.37 135.26,-63.29"/>
<polygon fill="gray" stroke="gray" points="136.29,-59.94 125.69,-60.08 134.06,-66.58 136.29,-59.94"/>
</g>
<!-- Accounts -->
<g id="node5" class="node">
<title>Accounts</title>
<ellipse fill="none" stroke="black" cx="283.68" cy="-42" rx="98.28" ry="18"/>
<text text-anchor="middle" x="283.68" y="-38.3" font-family="Times,serif" font-size="14.00">CustomerAccounts</text>
</g>
<!-- gw&#45;&gt;Accounts -->
<g id="edge1" class="edge">
<title>gw&#45;&gt;Accounts</title>
<path fill="none" stroke="darkgoldenrod" d="M283.68,-95.7C283.68,-87.98 283.68,-78.71 283.68,-70.11"/>
<polygon fill="darkgoldenrod" stroke="darkgoldenrod" points="287.18,-70.1 283.68,-60.1 280.18,-70.1 287.18,-70.1"/>
</g>
<!-- Regs -->
<g id="node6" class="node">
<title>Regs</title>
<ellipse fill="none" stroke="black" cx="510.68" cy="-42" rx="111.28" ry="18"/>
<text text-anchor="middle" x="510.68" y="-38.3" font-family="Times,serif" font-size="14.00">CustomerRegulations</text>
</g>
<!-- gw&#45;&gt;Regs -->
<g id="edge2" class="edge">
<title>gw&#45;&gt;Regs</title>
<path fill="none" stroke="darkgreen" d="M331.55,-98.24C366.53,-87.45 414.2,-72.75 451.56,-61.23"/>
<polygon fill="darkgreen" stroke="darkgreen" points="452.79,-64.51 461.32,-58.22 450.73,-57.83 452.79,-64.51"/>
</g>
</g>
</svg>
